<?xml version="1.0" encoding="UTF-8"?><svg id="Camada_1" xmlns="http://www.w3.org/2000/svg" viewBox="0 0 1897.7 400.4"><defs><style>.cls-1{fill:#f5cc2f;}.cls-2{fill:#306497;}.cls-3{fill:#333;}</style></defs><path class="cls-3" d="M727.18,359.91c-21.71,0-41.88-3.67-60.5-10.98-18.63-7.32-34.78-17.75-48.44-31.28-13.67-13.53-24.32-29.42-31.96-47.65-7.64-18.23-11.46-38.25-11.46-60.08s3.82-41.84,11.46-60.07c7.64-18.23,18.35-34.11,32.16-47.65,13.8-13.53,29.95-23.96,48.44-31.28,18.49-7.32,38.73-10.98,60.7-10.98,24.39,0,46.43,4.35,66.13,13.05,19.7,8.7,36.24,21.48,49.65,38.32l-41.81,39.77c-9.65-11.32-20.37-19.82-32.16-25.48-11.8-5.66-24.66-8.5-38.59-8.5-13.13,0-25.19,2.21-36.18,6.63-10.99,4.42-20.5,10.77-28.54,19.06-8.04,8.29-14.27,18.09-18.69,29.42-4.42,11.33-6.63,23.9-6.63,37.7s2.21,26.38,6.63,37.71c4.42,11.33,10.65,21.13,18.69,29.41,8.04,8.29,17.55,14.64,28.54,19.06,10.99,4.42,23.05,6.63,36.18,6.63,13.93,0,26.8-2.83,38.59-8.49,11.79-5.66,22.51-14.29,32.16-25.89l41.81,39.77c-13.41,16.85-29.95,29.7-49.65,38.53-19.7,8.84-41.88,13.26-66.53,13.26Z"/><path class="cls-3" d="M967.14,128.72c15.42,0,29.21,3.52,41.38,10.57,12.16,7.04,21.74,17.82,28.73,32.32,6.99,14.5,10.48,33.08,10.48,55.73v127.61h-56.38v-117.67c0-17.95-3.43-31.21-10.3-39.77-6.87-8.56-16.57-12.84-29.09-12.84-8.92,0-16.93,2.14-24.03,6.42-7.11,4.29-12.65,10.84-16.63,19.68-3.98,8.84-5.96,20.17-5.96,33.97v110.21h-56.38V47.52h56.38v146.26l-12.65-18.65c6.99-14.91,16.99-26.37,30-34.39,13.01-8.01,27.83-12.02,44.45-12.02Z"/><path class="cls-3" d="M1132.03,358.25c-16.88,0-31.36-2.97-43.42-8.91-12.06-5.94-21.31-14.01-27.74-24.24-6.43-10.22-9.65-21.68-9.65-34.39s3.15-24.86,9.45-34.8c6.29-9.94,16.28-17.74,29.95-23.41,13.67-5.66,31.49-8.49,53.47-8.49h57.49v37.7h-50.65c-14.74,0-24.86,2.49-30.35,7.46-5.5,4.97-8.24,11.19-8.24,18.65,0,8.29,3.15,14.85,9.45,19.68,6.29,4.84,14.94,7.25,25.93,7.25s19.83-2.55,28.14-7.67c8.31-5.11,14.34-12.64,18.09-22.58l9.65,29.83c-4.56,14.36-12.87,25.27-24.93,32.73-12.06,7.46-27.61,11.18-46.64,11.18ZM1197.96,354.94v-43.5l-4.02-9.53v-77.89c0-13.81-4.09-24.58-12.26-32.32-8.18-7.73-20.7-11.6-37.59-11.6-11.53,0-22.85,1.86-33.97,5.59-11.12,3.73-20.57,8.77-28.34,15.12l-22.51-45.16c11.79-8.56,25.99-15.19,42.61-19.89,16.62-4.69,33.5-7.04,50.66-7.04,32.96,0,58.55,8.02,76.78,24.03,18.22,16.02,27.34,41.02,27.34,74.99v127.2h-58.69Z"/><path class="cls-3" d="M1326.84,354.94l-90.86-222.9h64.73l75.58,191.83h-32.16l78.39-191.83h60.31l-91.26,222.9h-64.73Z"/><path class="cls-3" d="M1574.22,358.25c-24.66,0-46.3-4.97-64.92-14.91-18.63-9.94-33.03-23.55-43.22-40.81-10.19-17.26-15.28-36.94-15.28-59.04s5.03-42.19,15.08-59.45c10.05-17.26,23.78-30.8,41.21-40.6,17.42-9.8,37.12-14.71,59.1-14.71s40.27,4.63,57.29,13.88c17.02,9.26,30.48,22.51,40.4,39.77,9.91,17.27,14.88,37.91,14.88,61.94,0,2.49-.14,5.32-.4,8.49-.27,3.18-.54,6.15-.81,8.91h-175.68v-37.7h142.72l-24.12,11.19c0-11.6-2.28-21.68-6.84-30.24-4.56-8.56-10.85-15.26-18.89-20.1-8.04-4.83-17.42-7.25-28.14-7.25s-20.17,2.42-28.34,7.25c-8.18,4.84-14.54,11.6-19.1,20.3-4.56,8.7-6.84,19-6.84,30.87v9.94c0,12.16,2.61,22.86,7.84,32.11,5.23,9.26,12.59,16.3,22.11,21.13,9.51,4.84,20.7,7.25,33.57,7.25,11.52,0,21.64-1.79,30.35-5.39,8.71-3.59,16.68-8.97,23.92-16.16l33.37,37.29c-9.92,11.6-22.38,20.51-37.39,26.73-15.01,6.21-32.3,9.32-51.86,9.32Z"/><path class="cls-3" d="M1680.14,64.92h217.56v43.51l-130.9,246.52h-78.28l140.69-264.33,18.68,29h-167.67l-.08-54.69Z"/><rect class="cls-1" x="132.29" y="222.25" width="52.92" height="52.92"/><polygon class="cls-3" points="82.9 320.94 82.9 88.19 184.7 88.19 184.7 0 0 0 0 400.4 309.9 400.4 248.71 320.94 82.9 320.94"/><polygon class="cls-2" points="486.83 78.13 485.07 0 262.82 0 262.82 88.19 365.12 88.19 248.71 320.94 309.9 400.4 310.44 400.4 486.83 78.13"/></svg>